Coordinates
version=1
nRows=24
nColumns=24
inDegrees=yes

Units are S.I. units (second, meters, Newtons, ...)
If the header above contains a line with 'inDegrees', this indicates whether rotational values are in degrees (yes) or radians (no).

endheader
time	pelvis_tilt	pelvis_list	pelvis_rotation	pelvis_tx	pelvis_ty	pelvis_tz	hip_flexion_r	hip_adduction_r	hip_rotation_r	knee_angle_r	ankle_angle_r	subtalar_angle_r	mtp_angle_r	hip_flexion_l	hip_adduction_l	hip_rotation_l	knee_angle_l	ankle_angle_l	subtalar_angle_l	mtp_angle_l	lumbar_extension	lumbar_bending	lumbar_rotation
      1.00666667	      6.02917693	      2.79997699	     -0.05030895	     -0.10813788	      0.73181407	      0.35289456	     28.77081203	     -6.75754149	     -7.37412388	    -41.60710061	      6.31237714	    -11.24921719	      0.00000000	    -10.83301729	      6.51385470	    -12.65063848	    -12.81853913	     16.33307328	     -7.46269216	      0.00000000	      0.00000000	      0.00000000	      0.00000000
      1.01333333	      5.64470522	      3.08165096	      0.25174190	     -0.10053503	      0.73040278	      0.35300054	     28.94732750	     -6.82959227	     -7.62534261	    -38.47998988	      6.58268959	    -10.55391811	      0.00000000	    -11.07309804	      6.68854619	    -12.39168798	    -12.85806158	     16.51029657	     -7.27895402	      0.00000000	      0.00000000	      0.00000000	      0.00000000
      1.02000000	      5.36699806	      3.19323349	      0.92266328	     -0.09277709	      0.72912157	      0.35277358	     28.80135463	     -7.03697629	     -8.75077633	    -35.24905713	      7.36799173	     -8.89700985	      0.00000000	    -11.31492357	      6.55734757	    -11.94846520	    -13.17262234	     16.94586863	     -6.86558397	      0.00000000	      0.00000000	      0.00000000	      0.00000000
      1.02666667	      4.88987824	      3.41715315	      1.21283592	     -0.08496996	      0.72751227	      0.35300020	     28.93187400	     -7.02604249	     -9.17261634	    -32.00846871	      7.69016703	     -7.91707669	      0.00000000	    -11.46461810	      6.65153538	    -11.72140162	    -13.23966286	     17.09364434	     -6.65751051	      0.00000000	      0.00000000	      0.00000000	      0.00000000
      1.03333333	      4.52248858	      3.59723710	      1.76102468	     -0.07713715	      0.72597674	      0.35301392	     28.83052014	     -7.14770345	    -10.14601720	    -28.78405770	      8.24393463	     -6.34774152	      0.00000000	    -11.62286209	      6.60812965	    -11.28601173	    -13.53805332	     17.45284327	     -6.28048784	      0.00000000	      0.00000000	      0.00000000	      0.00000000
      1.04000000	      4.01253566	      3.89125149	      1.95312618	     -0.06917684	      0.72415642	      0.35350093	     28.95936223	     -7.07973526	    -10.42911351	    -25.65207560	      8.41212167	     -5.45861678	      0.00000000	    -11.74693668	      6.78440855	    -11.03756695	    -13.62928967	     17.55025699	     -6.10279136	      0.00000000	      0.00000000	      0.00000000	      0.00000000
      1.04666667	      3.69427772	      3.94335472	      2.65372390	     -0.06110368	      0.72262785	      0.35358034	     28.69912022	     -7.11495614	    -11.91042746	    -22.58886306	      8.85064277	     -3.78255906	      0.00000000	    -11.89567283	      6.51420608	    -10.54564862	    -14.07297042	     17.93692404	     -5.74806475	      0.00000000	      0.00000000	      0.00000000	      0.00000000
      1.05333333	      3.33919974	      4.08513144	      3.05727609	     -0.05277750	      0.72088005	      0.35383851	     28.58731189	     -7.05789237	    -12.99123800	    -19.80709928	      9.27214683	     -2.20462782	      0.00000000	    -12.12486891	      6.43537111	    -10.20269557	    -14.34991329	     18.18427044	     -5.34737779	      0.00000000	      0.00000000	      0.00000000	      0.00000000
      1.06000000	      3.01101752	      4.19802721	      3.52363520	     -0.04443075	      0.71914754	      0.35422073	     28.46922956	     -6.94859829	    -14.15209752	    -17.26832752	      9.42351695	     -1.04254145	      0.00000000	    -12.31522040	      6.27553609	     -9.83763494	    -14.74779079	     18.39996960	     -5.12396170	      0.00000000	      0.00000000	      0.00000000	      0.00000000
      1.06666667	      2.72546411	      4.29768059	      3.94298545	     -0.03579651	      0.71740914	      0.35462073	     28.36154418	     -6.80637248	    -15.33396299	    -15.11746588	      9.78111469	      0.33284906	      0.00000000	    -12.60949892	      6.10984026	     -9.45826913	    -15.07557993	     18.62849155	     -4.69059698	      0.00000000	      0.00000000	      0.00000000	      0.00000000
      1.07333333	      2.42079314	      4.35052608	      4.29657926	     -0.02704288	      0.71565263	      0.35509890	     28.34781150	     -6.56669622	    -16.41046005	    -13.33232695	      9.88125950	      1.18547962	      0.00000000	    -12.84479650	      5.89920611	     -9.17196941	    -15.47519581	     18.69028580	     -4.47816896	      0.00000000	      0.00000000	      0.00000000	      0.00000000
      1.08000000	      2.29688796	      4.37970131	      4.68860674	     -0.01811111	      0.71404013	      0.35550689	     28.27487503	     -6.40256249	    -17.80805369	    -12.14769941	     10.39198115	      2.58899743	      0.00000000	    -13.25540233	      5.60960514	     -8.91232495	    -15.94860070	     18.90324900	     -3.88583652	      0.00000000	      0.00000000	      0.00000000	      0.00000000
      1.08666667	      2.13200002	      4.61111005	      4.57715338	     -0.00932715	      0.71217653	      0.35633977	     28.61090658	     -6.19586270	    -18.10611310	    -11.69345538	     10.44878412	      2.59811852	      0.00000000	    -13.68954019	      5.71135927	     -8.85325060	    -16.29460731	     18.87725638	     -3.86101043	      0.00000000	      0.00000000	      0.00000000	      0.00000000
      1.09333333	      2.03625540	      4.32212118	      5.35664512	      0.00010064	      0.71096761	      0.35642993	     28.34141054	     -5.90758898	    -20.02166114	    -10.97065840	     10.81077859	      3.80441991	      0.00000000	    -13.94331346	      4.91460735	     -8.45203966	    -17.10177493	     18.90664009	     -3.18677636	      0.00000000	      0.00000000	      0.00000000	      0.00000000
      1.10000000	      1.98005294	      4.22181889	      5.61665975	      0.00942035	      0.70959570	      0.35685704	     28.41850060	     -5.62689979	    -20.93337294	    -11.03568961	     10.92676150	      4.07619508	      0.00000000	    -14.31422231	      4.49045997	     -8.32071531	    -17.77615532	     18.74100196	     -2.84867649	      0.00000000	      0.00000000	      0.00000000	      0.00000000
      1.10666667	      1.95887701	      4.17352374	      5.71222817	      0.01885476	      0.70829787	      0.35729821	     28.57709992	     -5.37289844	    -21.36428237	    -11.54728696	     10.92567511	      3.90913260	      0.00000000	    -14.74068776	      4.17860726	     -8.29758328	    -18.41920159	     18.32095939	     -2.71809991	      0.00000000	      0.00000000	      0.00000000	      0.00000000
      1.11333333	      2.02062690	      4.04123042	      5.89066989	      0.02841637	      0.70723507	      0.35769064	     28.63277199	     -5.11045831	    -21.85146998	    -12.29917792	     10.82200519	      3.67125893	      0.00000000	    -15.13121919	      3.71170490	     -8.27229957	    -19.28671477	     17.76123042	     -2.49120022	      0.00000000	      0.00000000	      0.00000000	      0.00000000
      1.12000000	      2.13194706	      3.83623812	      6.10476916	      0.03809528	      0.70636450	      0.35800915	     28.63160278	     -4.81523584	    -22.11273897	    -13.25542998	     10.54689578	      3.29377761	      0.00000000	    -15.47932497	      3.12829052	     -8.27975010	    -20.29816114	     17.08819757	     -2.16283448	      0.00000000	      0.00000000	      0.00000000	      0.00000000
      1.12666667	      2.22138436	      3.47935114	      6.25864694	      0.04782841	      0.70560016	      0.35855629	     28.57405079	     -4.22869364	    -21.73631755	    -14.11054402	      9.62637446	      1.78649172	      0.00000000	    -15.63234978	      2.31453982	     -8.58285712	    -21.58140701	     16.48353510	     -1.29258602	      0.00000000	      0.00000000	      0.00000000	      0.00000000
      1.13333333	      2.44901914	      3.27389406	      6.35713861	      0.05757787	      0.70506800	      0.35892056	     28.55763352	     -3.93260985	    -21.40746761	    -15.50475626	      9.15901267	      1.32509794	      0.00000000	    -15.93992550	      1.72944360	     -8.67464007	    -22.84162946	     15.35096262	     -1.13037669	      0.00000000	      0.00000000	      0.00000000	      0.00000000
      1.14000000	      2.46856056	      2.92249161	      6.28854402	      0.06732861	      0.70453048	      0.35966732	     28.64588932	     -3.19831701	    -19.96387630	    -16.55573203	      7.64828967	     -1.02973156	      0.00000000	    -15.86597404	      0.98950833	     -9.08746018	    -24.32537653	     13.97086927	     -0.84136424	      0.00000000	      0.00000000	      0.00000000	      0.00000000
      1.14666667	      2.81777025	      2.67929694	      6.44654078	      0.07695058	      0.70443402	      0.36011525	     28.51413744	     -2.85681447	    -19.19064151	    -18.09808259	      7.11579142	     -1.44670745	      0.00000000	    -16.00166549	      0.26642843	     -9.16164282	    -25.99379701	     12.45267777	     -0.66835242	      0.00000000	      0.00000000	      0.00000000	      0.00000000
      1.15333333	      2.66030969	      2.21624499	      6.21777181	      0.08660878	      0.70402938	      0.36128986	     28.78682905	     -1.79147287	    -16.84422302	    -19.10032374	      5.04286207	     -4.78107375	      0.00000000	    -15.47244260	     -0.58764102	     -9.70338734	    -27.82847677	     10.50618297	     -0.57499114	      0.00000000	      0.00000000	      0.00000000	      0.00000000
      1.16000000	      2.74433048	      1.78968107	      6.20692281	      0.09619682	      0.70404799	      0.36229105	     28.82657246	     -0.96502309	    -15.10825420	    -20.32161201	      3.73063757	     -6.80235764	      0.00000000	    -15.03572773	     -1.51512816	     -9.94465300	    -29.86221806	      8.43199435	     -0.47873571	      0.00000000	      0.00000000	      0.00000000	      0.00000000
